<?xml version="1.0" encoding="utf-8"?>
<!-- Generator: Adobe Illustrator 25.1.0, SVG Export Plug-In . SVG Version: 6.00 Build 0)  -->
<svg version="1.1" id="Layer_1" xmlns="http://www.w3.org/2000/svg" xmlns:xlink="http://www.w3.org/1999/xlink" x="0px" y="0px"
	 viewBox="0 0 200 60" style="enable-background:new 0 0 200 60;" xml:space="preserve">
<style type="text/css">
	.st0{fill-rule:evenodd;clip-rule:evenodd;fill:#4400FF;}
	.st1{fill-rule:evenodd;clip-rule:evenodd;fill:#40AB5D;}
	.st2{fill-rule:evenodd;clip-rule:evenodd;fill:url(#rect8192_2_);}
	.st3{fill-rule:evenodd;clip-rule:evenodd;fill:url(#rect8199_2_);}
	.st4{fill-rule:evenodd;clip-rule:evenodd;fill:url(#rect8206_2_);}
	.st5{fill-rule:evenodd;clip-rule:evenodd;fill:url(#rect8213_2_);}
	.st6{fill-rule:evenodd;clip-rule:evenodd;fill:url(#rect8220_2_);}
	.st7{fill-rule:evenodd;clip-rule:evenodd;fill:url(#rect8227_2_);}
	.st8{fill-rule:evenodd;clip-rule:evenodd;fill:url(#rect8234_2_);}
	.st9{fill-rule:evenodd;clip-rule:evenodd;fill:url(#rect8241_2_);}
	.st10{fill-rule:evenodd;clip-rule:evenodd;fill:url(#rect8248_2_);}
	.st11{fill:#1ED760;}
	.st12{fill:#100F0D;}
	.st13{fill:#FF0000;}
	.st14{fill:#FFFFFF;}
</style>
<g id="logo-amazonmusic_1_">
	<g id="Page-1_1_" transform="translate(2.401 22)">
		<g id="Browse_Loading_Screen_1_">
			<path id="Combined-Shape_1_" class="st0" d="M60.6,6.8V4.5c0-0.3,0.2-0.6,0.5-0.6l0,0h10.2c0.3,0,0.6,0.2,0.6,0.5l0,0v1.9
				c-0.1,0.5-0.4,1-0.8,1.4L66,15.4c2-0.1,4,0.3,5.8,1.2c0.3,0.2,0.5,0.5,0.5,0.9v2.4c0,0.3-0.2,0.6-0.5,0.6c-0.1,0-0.1,0-0.2,0
				c-3.4-1.7-7.4-1.7-10.8,0c-0.4,0.2-0.7-0.2-0.7-0.5v-2.3c0-0.5,0.1-1.1,0.4-1.6l6.1-8.7h-5.3C60.9,7.4,60.7,7.1,60.6,6.8
				L60.6,6.8z M23.4,20.9h-3.1c-0.3,0-0.5-0.2-0.6-0.5V4.6C19.7,4.3,20,4,20.3,4l0,0h2.9c0.3,0,0.5,0.2,0.6,0.5v2.1h0.1
				c0.7-2.3,3.1-3.5,5.3-2.7c1.3,0.4,2.3,1.4,2.8,2.7c0.9-2.4,3.6-3.5,6-2.6c0.8,0.3,1.4,0.8,1.9,1.4c1,1.3,0.8,3.3,0.8,5v10
				c0,0.3-0.3,0.6-0.6,0.6l0,0H37c-0.3,0-0.6-0.3-0.6-0.6V12c0-1,0-2-0.1-3c-0.1-0.9-0.9-1.5-1.8-1.4c-0.8,0-1.6,0.5-1.9,1.3
				c-0.3,1-0.4,2-0.3,3v8.4c0,0.3-0.3,0.6-0.6,0.6l0,0h-3.1c-0.3,0-0.6-0.3-0.6-0.6V12c0-1.8,0.3-4.4-1.9-4.4S24,10.1,24,12v8.4
				C24,20.7,23.7,20.9,23.4,20.9L23.4,20.9z M80.8,3.7c4.6,0,7.1,3.9,7.1,8.9c0,4.8-2.8,8.7-7.1,8.7c-4.5,0-7-3.9-7-8.8
				C73.8,7.5,76.3,3.7,80.8,3.7z M80.8,6.9c-2.3,0-2.4,3.1-2.4,5s0,6.1,2.4,6.1s2.5-3.3,2.5-5.4c0.1-1.4-0.1-2.8-0.5-4.2
				C82.7,7.5,81.8,6.8,80.8,6.9z M93.9,20.9h-3.1c-0.3,0-0.6-0.3-0.6-0.6V4.5c0-0.3,0.3-0.5,0.6-0.5h2.9c0.3,0,0.5,0.2,0.5,0.4v2.4
				h0.1c0.9-2.2,2.1-3.2,4.2-3.2c1.5-0.1,2.8,0.6,3.6,1.9c0.7,1.6,1,3.3,0.8,4.9v10c0,0.3-0.3,0.5-0.6,0.5h-3.1
				c-0.3,0-0.5-0.2-0.5-0.5v-8.6c0-1.7,0.2-4.3-1.9-4.3C96,7.5,95.3,8,95,8.8c-0.4,1-0.6,2-0.5,3v8.5C94.5,20.7,94.2,21,93.9,20.9z
				 M55.6,20.9c-0.2,0.2-0.5,0.2-0.7,0.1c-0.7-0.6-1.3-1.3-1.8-2.1c-1.2,1.5-3.1,2.4-5.1,2.3c-2.4,0.2-4.5-1.7-4.7-4.1
				c0-0.2,0-0.5,0-0.7c-0.1-2.2,1.3-4.2,3.3-5c1.9-0.6,3.9-1,5.8-1.1V9.8c0.1-0.8,0-1.5-0.4-2.2c-0.4-0.5-1.1-0.8-1.7-0.8
				c-1.2-0.1-2.2,0.7-2.5,1.9c0,0.3-0.3,0.5-0.5,0.6l-3-0.3c-0.3,0-0.5-0.3-0.5-0.6l0,0c0.7-3.6,4-4.7,6.9-4.7
				c1.7-0.1,3.4,0.5,4.7,1.5c1.6,1.3,1.5,3.1,1.5,5.2v4.8c0,1.1,0.4,2.1,1.2,2.9c0.2,0.2,0.2,0.6,0,0.8l0,0
				C57.4,19.4,56.3,20.4,55.6,20.9L55.6,20.9z M52.5,13.4v-0.7c-2.2,0-4.6,0.5-4.6,3.1c0,1.3,0.7,2.2,1.9,2.2c0.9,0,1.7-0.6,2.2-1.4
				C52.4,15.6,52.6,14.5,52.5,13.4L52.5,13.4z M14.9,20.9c-0.2,0.2-0.5,0.2-0.7,0.1c-0.7-0.6-1.3-1.3-1.8-2.1
				c-1.3,1.5-3.2,2.4-5.1,2.2c-2.5,0.2-4.5-1.6-4.7-4c0-0.2,0-0.5,0-0.7c-0.1-2.3,1.3-4.3,3.3-5.1c1.9-0.6,3.9-1,5.8-1.1V9.8
				c0.1-0.8,0-1.5-0.4-2.2c-0.3-0.5-1-0.8-1.6-0.8C8.5,6.7,7.4,7.5,7.2,8.6c0,0.3-0.3,0.5-0.5,0.6l-3-0.3C3.3,8.8,3.1,8.6,3.1,8.3
				l0,0c0.7-3.6,4-4.7,6.9-4.7c1.7-0.1,3.4,0.5,4.7,1.5c1.5,1.4,1.4,3.3,1.4,5.3v4.8c0,1.1,0.4,2.1,1.2,2.9c0.2,0.2,0.2,0.6,0,0.8
				C16.7,19.4,15.5,20.4,14.9,20.9L14.9,20.9z M11.8,13.4v-0.7c-2.2,0-4.6,0.5-4.6,3.1c0,1.3,0.7,2.2,1.9,2.2c0.9,0,1.7-0.6,2.2-1.4
				C11.7,15.6,11.9,14.5,11.8,13.4z M64.9,27c-5.9,4.3-14.3,6.6-21.6,6.6c-9.7,0.1-19.1-3.5-26.4-10c-0.5-0.5-0.1-1.2,0.6-0.8
				c8,4.6,17.1,7,26.4,7c6.9,0,13.7-1.4,20.1-4.1C65,25.3,65.8,26.3,64.9,27z M67.3,24.3c-0.7-0.9-4.9-0.5-6.8-0.2
				c-0.6,0.1-0.7-0.4-0.1-0.8c3.3-2.3,8.8-1.7,9.4-0.9c0.6,0.8-0.2,6.2-3.3,8.8c-0.5,0.4-0.9,0.2-0.7-0.3
				C66.5,29.1,68,25.2,67.3,24.3z M166.2,18.2c0.6-0.4,0.9-1.1,0.9-1.8c0-0.5-0.2-1-0.5-1.3c-0.6-0.5-1.2-0.8-1.9-1l-2.8-1.1
				c-2.5-0.9-3.7-2.5-3.7-4.7c0-1.4,0.6-2.7,1.7-3.5c1.3-0.9,2.9-1.4,4.4-1.3c1.5,0,2.9,0.3,4.3,0.8c0.2,0.1,0.4,0.2,0.6,0.4
				c0.1,0.2,0.2,0.4,0.2,0.6v0.9c0,0.4-0.1,0.6-0.4,0.6c-0.3,0-0.5-0.1-0.8-0.2c-1.2-0.4-2.4-0.5-3.6-0.5c-2.1,0-3.2,0.7-3.2,2.2
				c0,0.5,0.2,1,0.5,1.4c0.6,0.5,1.4,0.9,2.1,1.1l2.6,1c1.1,0.4,2.1,1,2.9,1.8c0.6,0.8,0.9,1.7,0.9,2.7c0.1,1.5-0.6,2.9-1.8,3.8
				c-1.4,1-3,1.5-4.7,1.4c-1.7,0-3.5-0.3-5.1-0.9c-0.2-0.1-0.4-0.2-0.6-0.4c-0.1-0.2-0.2-0.4-0.2-0.6v-0.9c0-0.4,0.1-0.6,0.4-0.6
				c0.3,0,0.6,0.1,0.8,0.2c1.5,0.5,3,0.7,4.6,0.7C164.6,18.9,165.5,18.7,166.2,18.2L166.2,18.2z M151.4,4.7c0-0.3,0.2-0.6,0.5-0.7
				c0.1,0,0.1,0,0.2,0h2c0.3,0,0.6,0.2,0.7,0.5c0,0.1,0,0.1,0,0.2v15.6c0,0.3-0.2,0.6-0.5,0.7c-0.1,0-0.1,0-0.2,0h-1.4
				c-0.2,0-0.4,0-0.5-0.1s-0.2-0.3-0.3-0.5l-0.2-1.2c-1.8,1.4-4.1,2.3-6.4,2.3c-1.4,0.1-2.7-0.4-3.7-1.3c-0.9-1-1.4-2.4-1.3-3.8V4.7
				c0-0.3,0.2-0.6,0.5-0.7c0.1,0,0.1,0,0.2,0h2c0.3,0,0.6,0.2,0.7,0.5c0,0.1,0,0.1,0,0.2v10.6c-0.1,0.9,0.2,1.9,0.7,2.7
				c0.6,0.6,1.4,0.9,2.2,0.9c1.7,0,3.4-0.6,4.9-1.6L151.4,4.7z M133.4,20.9c-0.3,0-0.6-0.2-0.7-0.5c0-0.1,0-0.1,0-0.2V9.5
				c0.1-0.9-0.2-1.7-0.6-2.5c-0.5-0.6-1.3-0.9-2-0.8c-1.7,0-3.5,0.6-4.9,1.5c0,0.2,0,0.3,0,0.5v12.1c0,0.3-0.2,0.6-0.5,0.7
				c-0.1,0-0.1,0-0.2,0h-2c-0.3,0-0.6-0.2-0.7-0.5c0-0.1,0-0.1,0-0.2V9.5c0.1-0.9-0.2-1.7-0.6-2.5c-0.5-0.6-1.3-0.9-2-0.8
				c-1.7,0-3.4,0.5-4.9,1.5v12.6c0,0.3-0.2,0.6-0.5,0.7c-0.1,0-0.1,0-0.2,0h-2c-0.3,0-0.6-0.2-0.7-0.5c0-0.1,0-0.1,0-0.2V4.7
				c0-0.3,0.2-0.6,0.5-0.7c0.1,0,0.1,0,0.2,0h1.5c0.2,0,0.4,0,0.5,0.1s0.2,0.3,0.3,0.5l0.2,1.1c1.8-1.4,4-2.1,6.3-2.2
				c1.8-0.2,3.5,0.8,4.2,2.4c1.9-1.5,4.2-2.3,6.6-2.4c1.3-0.1,2.6,0.4,3.6,1.3c0.9,1,1.3,2.4,1.2,3.7v11.8c0,0.3-0.2,0.6-0.5,0.7
				c-0.1,0-0.1,0-0.2,0L133.4,20.9z M184.6,7.8c-0.9,1.3-1.4,2.9-1.2,4.5v0.4c-0.1,1.6,0.3,3.2,1.3,4.5c1.1,1,2.5,1.5,4,1.4
				c1,0,2-0.2,3-0.5c0.2-0.1,0.3-0.1,0.5-0.1c0.3,0,0.4,0.2,0.4,0.7v0.9c0,0.2,0,0.4-0.1,0.6s-0.3,0.3-0.5,0.4
				c-1.2,0.5-2.5,0.7-3.8,0.7c-2.2,0.2-4.5-0.7-6.1-2.3c-2.8-3.9-2.8-9.2,0.1-13.1c1.6-1.6,3.8-2.5,6.1-2.3c1.2,0,2.4,0.2,3.6,0.6
				c0.2,0.1,0.4,0.2,0.5,0.3c0.1,0.2,0.2,0.4,0.1,0.7v0.9c0,0.4-0.1,0.7-0.4,0.7c-0.2,0-0.4,0-0.5-0.1c-0.9-0.3-1.8-0.4-2.8-0.4
				C187.2,6.2,185.7,6.7,184.6,7.8L184.6,7.8z M175.8,4c0.3,0,0.6,0.2,0.7,0.5c0,0.1,0,0.1,0,0.2v15.6c0,0.3-0.2,0.6-0.5,0.7
				c-0.1,0-0.1,0-0.2,0h-2c-0.3,0-0.6-0.2-0.7-0.5c0-0.1,0-0.1,0-0.2V4.7c0-0.3,0.2-0.6,0.5-0.7c0.1,0,0.1,0,0.2,0H175.8z
				 M176.3-2.4c0.7,0.8,0.7,2.1,0,2.9c-0.9,0.7-2.2,0.7-3.1,0c-0.7-0.8-0.7-2.1,0-2.9C174.2-3.2,175.4-3.2,176.3-2.4z"/>
		</g>
	</g>
</g>
</svg>
