<?xml version="1.0" encoding="utf-8"?>
<!-- Generator: Adobe Illustrator 25.1.0, SVG Export Plug-In . SVG Version: 6.00 Build 0)  -->
<svg version="1.1" id="Layer_1" xmlns="http://www.w3.org/2000/svg" xmlns:xlink="http://www.w3.org/1999/xlink" x="0px" y="0px"
	 viewBox="0 0 200 60" style="enable-background:new 0 0 200 60;" xml:space="preserve">
<style type="text/css">
	.st0{fill-rule:evenodd;clip-rule:evenodd;fill:#4400FF;}
	.st1{fill-rule:evenodd;clip-rule:evenodd;fill:#40AB5D;}
	.st2{fill-rule:evenodd;clip-rule:evenodd;fill:url(#rect8192_2_);}
	.st3{fill-rule:evenodd;clip-rule:evenodd;fill:url(#rect8199_2_);}
	.st4{fill-rule:evenodd;clip-rule:evenodd;fill:url(#rect8206_2_);}
	.st5{fill-rule:evenodd;clip-rule:evenodd;fill:url(#rect8213_2_);}
	.st6{fill-rule:evenodd;clip-rule:evenodd;fill:url(#rect8220_2_);}
	.st7{fill-rule:evenodd;clip-rule:evenodd;fill:url(#rect8227_2_);}
	.st8{fill-rule:evenodd;clip-rule:evenodd;fill:url(#rect8234_2_);}
	.st9{fill-rule:evenodd;clip-rule:evenodd;fill:url(#rect8241_2_);}
	.st10{fill-rule:evenodd;clip-rule:evenodd;fill:url(#rect8248_2_);}
	.st11{fill:#1ED760;}
	.st12{fill:#100F0D;}
	.st13{fill:#FF0000;}
	.st14{fill:#FFFFFF;}
</style>
<g id="g8252_1_" transform="translate(0,86.843818)">
	<path id="path8175_1_" d="M58.3-54.1c0,6.3,3.9,10.1,9.6,10.1c2.9,0,5.3-0.8,6.6-2.9v2.9h5.3v-30h-5.5v12.7c-1.2-2.1-3.5-3-6.4-3
		C62.3-64.3,58.3-60.5,58.3-54.1L58.3-54.1z M74.5-54.1c0,3.6-2.4,5.8-5.4,5.8c-3,0-5.4-2.2-5.4-5.8c0-3.7,2.4-5.9,5.4-5.9
		C72.1-60,74.5-57.7,74.5-54.1z"/>
	<path id="path8177_1_" d="M96.8-51.8c-0.6,2.3-2.2,3.5-4.7,3.5c-2.9,0-5.3-1.8-5.4-4.9h13.8c0.2-0.8,0.3-1.6,0.3-2.5
		c0-5.6-3.8-8.7-9.4-8.7c-6,0-10.1,4.3-10.1,10c0,6.4,4.5,10.3,10.8,10.3c4.7,0,8-2,9.4-5.9L96.8-51.8z M86.7-56.8
		c0.5-2.2,2.4-3.6,4.6-3.6c2.4,0,4.1,1.3,4.1,3.4l0,0.2C95.4-56.8,86.7-56.8,86.7-56.8z"/>
	<path id="path8179_1_" d="M117.1-51.8c-0.6,2.3-2.2,3.5-4.7,3.5c-2.9,0-5.3-1.8-5.4-4.9h13.8c0.2-0.8,0.3-1.6,0.3-2.5
		c0-5.6-3.8-8.7-9.4-8.7c-6,0-10.1,4.3-10.1,10c0,6.4,4.5,10.3,10.8,10.3c4.7,0,8-2,9.4-5.9L117.1-51.8z M107-56.8
		c0.5-2.2,2.4-3.6,4.6-3.6c2.4,0,4.1,1.3,4.1,3.4l0,0.2H107z"/>
	<path id="path8181_1_" d="M140.3-44v-4.9h-11.5L140-59.8v-4.5h-17.7v4.7h10.8L122-48.7v4.7H140.3z"/>
	<path id="path8183_1_" d="M156.2-51.8c-0.6,2.3-2.2,3.5-4.7,3.5c-2.9,0-5.3-1.8-5.4-4.9h13.8c0.2-0.8,0.3-1.6,0.3-2.5
		c0-5.6-3.8-8.7-9.4-8.7c-6,0-10.1,4.3-10.1,10c0,6.4,4.5,10.3,10.8,10.3c4.7,0,8-2,9.4-5.9L156.2-51.8z M146.2-56.8
		c0.5-2.2,2.4-3.6,4.6-3.6c2.4,0,4.1,1.3,4.1,3.4l0,0.2H146.2z"/>
	<rect id="rect8185_1_" x="45.9" y="-64.3" class="st1" width="6.7" height="3.9"/>
	
		<linearGradient id="rect8192_2_" gradientUnits="userSpaceOnUse" x1="-202.8804" y1="69.2091" x2="-202.9149" y2="67.009" gradientTransform="matrix(1.8318 0 0 1.8318 420.98 -181.6565)">
		<stop  offset="0" style="stop-color:#358C7B"/>
		<stop  offset="0.5256" style="stop-color:#33A65E"/>
	</linearGradient>
	<rect id="rect8192_1_" x="45.9" y="-58.9" class="st2" width="6.7" height="3.9"/>
	
		<linearGradient id="rect8199_2_" gradientUnits="userSpaceOnUse" x1="-204.791" y1="72.0612" x2="-201.0041" y2="70.1316" gradientTransform="matrix(1.8318 0 0 1.8318 420.98 -181.6565)">
		<stop  offset="0" style="stop-color:#222B90"/>
		<stop  offset="1" style="stop-color:#367B99"/>
	</linearGradient>
	<rect id="rect8199_1_" x="45.9" y="-53.4" class="st3" width="6.7" height="3.9"/>
	
		<linearGradient id="rect8206_2_" gradientUnits="userSpaceOnUse" x1="-218.0543" y1="74.0772" x2="-214.3797" y2="74.0772" gradientTransform="matrix(1.8318 0 0 1.8318 420.98 -181.6565)">
		<stop  offset="0" style="stop-color:#FF9900"/>
		<stop  offset="1" style="stop-color:#FF8000"/>
	</linearGradient>
	<rect id="rect8206_1_" x="21.5" y="-47.9" class="st4" width="6.7" height="3.9"/>
	
		<linearGradient id="rect8213_2_" gradientUnits="userSpaceOnUse" x1="-213.6133" y1="74.0772" x2="-209.9386" y2="74.0772" gradientTransform="matrix(1.8318 0 0 1.8318 420.98 -181.6565)">
		<stop  offset="0" style="stop-color:#FF8000"/>
		<stop  offset="1" style="stop-color:#CC1953"/>
	</linearGradient>
	<rect id="rect8213_1_" x="29.7" y="-47.9" class="st5" width="6.7" height="3.9"/>
	
		<linearGradient id="rect8220_2_" gradientUnits="userSpaceOnUse" x1="-209.1718" y1="74.0772" x2="-205.4972" y2="74.0772" gradientTransform="matrix(1.8318 0 0 1.8318 420.98 -181.6565)">
		<stop  offset="0" style="stop-color:#CC1953"/>
		<stop  offset="1" style="stop-color:#241284"/>
	</linearGradient>
	<rect id="rect8220_1_" x="37.8" y="-47.9" class="st6" width="6.7" height="3.9"/>
	
		<linearGradient id="rect8227_2_" gradientUnits="userSpaceOnUse" x1="-204.7349" y1="74.0772" x2="-201.0603" y2="74.0772" gradientTransform="matrix(1.8318 0 0 1.8318 420.98 -181.6565)">
		<stop  offset="0" style="stop-color:#222B90"/>
		<stop  offset="1" style="stop-color:#3559A6"/>
	</linearGradient>
	<rect id="rect8227_1_" x="45.9" y="-47.9" class="st7" width="6.7" height="3.9"/>
	
		<linearGradient id="rect8234_2_" gradientUnits="userSpaceOnUse" x1="-209.3167" y1="71.676" x2="-205.3524" y2="70.5168" gradientTransform="matrix(1.8318 0 0 1.8318 420.98 -181.6565)">
		<stop  offset="0" style="stop-color:#CC1953"/>
		<stop  offset="1" style="stop-color:#241284"/>
	</linearGradient>
	<rect id="rect8234_1_" x="37.8" y="-53.4" class="st8" width="6.7" height="3.9"/>
	
		<linearGradient id="rect8241_2_" gradientUnits="userSpaceOnUse" x1="-213.7479" y1="70.3801" x2="-209.8122" y2="71.8126" gradientTransform="matrix(1.8318 0 0 1.8318 420.98 -181.6565)">
		<stop  offset="2.669841e-03" style="stop-color:#FFCC00"/>
		<stop  offset="0.9999" style="stop-color:#CE1938"/>
	</linearGradient>
	<rect id="rect8241_1_" x="29.7" y="-53.4" class="st9" width="6.7" height="3.9"/>
	
		<linearGradient id="rect8248_2_" gradientUnits="userSpaceOnUse" x1="-213.3081" y1="66.7055" x2="-210.2519" y2="69.5257" gradientTransform="matrix(1.8318 0 0 1.8318 420.98 -181.6565)">
		<stop  offset="2.669841e-03" style="stop-color:#FFD100"/>
		<stop  offset="1" style="stop-color:#FD5A22"/>
	</linearGradient>
	<rect id="rect8248_1_" x="29.7" y="-58.9" class="st10" width="6.7" height="3.9"/>
	<path id="path8250_1_" d="M173.1-57.3c0,0.2,0,0.6,0,0.6h5.3c0,0,0-1,0-1.6c0-3.5-2.2-6-5.8-6c-2.4,0-4,1.1-4.9,3v-3h-5.5V-44h5.5
		v-13.1c0-2.1,1.1-3.2,2.8-3.2C172.1-60.3,173.1-58.8,173.1-57.3z"/>
</g>
</svg>
