<?xml version="1.0" encoding="utf-8"?>
<!-- Generator: Adobe Illustrator 25.1.0, SVG Export Plug-In . SVG Version: 6.00 Build 0)  -->
<svg version="1.1" id="Layer_1" xmlns="http://www.w3.org/2000/svg" xmlns:xlink="http://www.w3.org/1999/xlink" x="0px" y="0px"
	 viewBox="0 0 200 60" style="enable-background:new 0 0 200 60;" xml:space="preserve">
<style type="text/css">
	.st0{fill-rule:evenodd;clip-rule:evenodd;fill:#4400FF;}
	.st1{fill-rule:evenodd;clip-rule:evenodd;fill:#40AB5D;}
	.st2{fill-rule:evenodd;clip-rule:evenodd;fill:url(#rect8192_2_);}
	.st3{fill-rule:evenodd;clip-rule:evenodd;fill:url(#rect8199_2_);}
	.st4{fill-rule:evenodd;clip-rule:evenodd;fill:url(#rect8206_2_);}
	.st5{fill-rule:evenodd;clip-rule:evenodd;fill:url(#rect8213_2_);}
	.st6{fill-rule:evenodd;clip-rule:evenodd;fill:url(#rect8220_2_);}
	.st7{fill-rule:evenodd;clip-rule:evenodd;fill:url(#rect8227_2_);}
	.st8{fill-rule:evenodd;clip-rule:evenodd;fill:url(#rect8234_2_);}
	.st9{fill-rule:evenodd;clip-rule:evenodd;fill:url(#rect8241_2_);}
	.st10{fill-rule:evenodd;clip-rule:evenodd;fill:url(#rect8248_2_);}
	.st11{fill:#1ED760;}
	.st12{fill:#100F0D;}
	.st13{fill:#FF0000;}
	.st14{fill:#FFFFFF;}
</style>
<path class="st11" d="M35.6,2.5C20.4,2.5,8.1,14.8,8.1,30c0,15.2,12.3,27.5,27.5,27.5c15.2,0,27.5-12.3,27.5-27.5
	C63.1,14.8,50.8,2.5,35.6,2.5C35.6,2.5,35.6,2.5,35.6,2.5z M48.2,42.2c-0.5,0.8-1.6,1.1-2.4,0.6c-6.5-3.9-14.6-4.8-24.2-2.7
	c-0.9,0.2-1.8-0.4-2.1-1.3c-0.2-0.9,0.4-1.8,1.3-2.1c10.5-2.4,19.5-1.4,26.7,3.1C48.4,40.3,48.7,41.4,48.2,42.2z M51.5,34.7
	c-0.6,1-1.9,1.3-2.9,0.7c-7.4-4.5-18.7-5.9-27.4-3.2c-1.1,0.3-2.3-0.3-2.7-1.4c-0.3-1.1,0.3-2.3,1.4-2.7c10-3,22.4-1.6,30.9,3.7
	C51.8,32.3,52.2,33.7,51.5,34.7L51.5,34.7z M51.8,26.9c-8.9-5.3-23.5-5.7-31.9-3.2c-1.4,0.4-2.8-0.4-3.2-1.7
	c-0.4-1.4,0.4-2.8,1.7-3.2c9.7-2.9,25.9-2.4,36.1,3.7c1.2,0.7,1.6,2.3,0.9,3.5C54.6,27.2,53.1,27.6,51.8,26.9L51.8,26.9z M82.9,27.9
	c-4.7-1.1-5.6-1.9-5.6-3.6c0-1.6,1.5-2.6,3.7-2.6c2.1,0,4.3,0.8,6.5,2.5c0.1,0.1,0.2,0.1,0.2,0.1c0.1,0,0.2-0.1,0.2-0.1l2.3-3.3
	c0.1-0.1,0.1-0.3-0.1-0.4c-2.7-2.1-5.6-3.2-9.1-3.2c-5.1,0-8.7,3.1-8.7,7.5c0,4.7,3.1,6.4,8.4,7.7c4.5,1,5.3,1.9,5.3,3.5
	c0,1.7-1.6,2.8-4,2.8c-2.8,0-5-0.9-7.6-3.1c-0.1-0.1-0.1-0.1-0.2-0.1c-0.1,0-0.2,0-0.2,0.1l-2.6,3.1c-0.1,0.1-0.1,0.3,0,0.4
	c2.9,2.6,6.6,4,10.5,4c5.5,0,9.1-3,9.1-7.7C91,31.5,88.7,29.3,82.9,27.9C82.9,27.9,82.9,27.9,82.9,27.9z M103.5,23.2
	c-2.4,0-4.4,0.9-6,2.9v-2.2c0-0.2-0.1-0.3-0.3-0.3H93c-0.2,0-0.3,0.1-0.3,0.3v24.2c0,0.2,0.1,0.3,0.3,0.3h4.3c0.2,0,0.3-0.1,0.3-0.3
	v-7.6c1.6,1.8,3.6,2.7,6,2.7c4.4,0,9-3.4,9-10C112.5,26.6,108,23.2,103.5,23.2L103.5,23.2L103.5,23.2z M107.5,33.2
	c0,3.3-2.1,5.7-5,5.7c-2.9,0-5.1-2.4-5.1-5.7c0-3.2,2.2-5.7,5.1-5.7C105.4,27.5,107.5,29.9,107.5,33.2L107.5,33.2z M124,23.2
	c-5.7,0-10.2,4.4-10.2,10c0,5.6,4.5,9.9,10.2,9.9c5.8,0,10.3-4.4,10.3-10C134.2,27.6,129.7,23.2,124,23.2L124,23.2z M124,38.9
	c-3,0-5.3-2.4-5.3-5.7c0-3.3,2.2-5.6,5.3-5.6c3.1,0,5.4,2.4,5.4,5.7C129.3,36.5,127.1,38.9,124,38.9z M146.4,23.6h-4.7v-4.8
	c0-0.2-0.1-0.3-0.3-0.3h-4.3c-0.2,0-0.3,0.1-0.3,0.3v4.8h-2c-0.2,0-0.3,0.1-0.3,0.3v3.7c0,0.2,0.1,0.3,0.3,0.3h2v9.5
	c0,3.8,1.9,5.8,5.7,5.8c1.5,0,2.8-0.3,4-1c0.1-0.1,0.2-0.2,0.2-0.3v-3.5c0-0.1-0.1-0.2-0.1-0.3c-0.1-0.1-0.2-0.1-0.3,0
	c-0.8,0.4-1.6,0.6-2.5,0.6c-1.4,0-2-0.6-2-2v-8.8h4.7c0.2,0,0.3-0.1,0.3-0.3v-3.7C146.8,23.7,146.6,23.6,146.4,23.6L146.4,23.6
	L146.4,23.6z M162.8,23.6V23c0-1.7,0.7-2.5,2.1-2.5c0.9,0,1.6,0.2,2.4,0.4c0.1,0,0.2,0,0.3,0c0.1-0.1,0.1-0.2,0.1-0.3v-3.6
	c0-0.1-0.1-0.3-0.2-0.3c-0.8-0.3-1.9-0.5-3.5-0.5c-3.9,0-6,2.2-6,6.4v0.9h-2c-0.2,0-0.3,0.1-0.3,0.3v3.7c0,0.2,0.1,0.3,0.3,0.3h2
	v14.6c0,0.2,0.1,0.3,0.3,0.3h4.2c0.2,0,0.3-0.1,0.3-0.3V27.9h4l6.1,14.6c-0.7,1.5-1.4,1.8-2.3,1.8c-0.7,0-1.5-0.2-2.3-0.7
	c-0.1,0-0.2,0-0.2,0c-0.1,0-0.2,0.1-0.2,0.2l-1.4,3.2c-0.1,0.2,0,0.3,0.1,0.4c1.5,0.8,2.9,1.2,4.5,1.2c3.1,0,4.9-1.5,6.4-5.4
	l7.4-19.1c0-0.1,0-0.2,0-0.3c-0.1-0.1-0.2-0.1-0.3-0.1h-4.4c-0.1,0-0.3,0.1-0.3,0.2l-4.5,12.9l-5-13c0-0.1-0.2-0.2-0.3-0.2
	L162.8,23.6L162.8,23.6L162.8,23.6z M153.3,23.6H149c-0.2,0-0.3,0.1-0.3,0.3v18.5c0,0.2,0.1,0.3,0.3,0.3h4.3c0.2,0,0.3-0.1,0.3-0.3
	V23.9C153.6,23.7,153.5,23.6,153.3,23.6C153.3,23.6,153.3,23.6,153.3,23.6z M151.2,15.1c-1.7,0-3.1,1.4-3.1,3c0,1.7,1.4,3.1,3.1,3.1
	s3-1.4,3-3.1C154.2,16.5,152.9,15.1,151.2,15.1z M188.4,29.6c-1.7,0-3-1.4-3-3c0-1.6,1.3-3,3-3s3,1.4,3,3
	C191.5,28.2,190.1,29.6,188.4,29.6z M188.5,23.9c-1.5,0-2.7,1.2-2.7,2.7c0,1.5,1.2,2.7,2.7,2.7c1.5,0,2.7-1.2,2.7-2.7
	C191.1,25.1,190,23.9,188.5,23.9z M189.1,26.9L190,28h-0.7l-0.8-1.1h-0.7V28h-0.6v-3.1h1.4c0.7,0,1.2,0.4,1.2,1
	C189.9,26.4,189.6,26.7,189.1,26.9L189.1,26.9z M188.6,25.4h-0.8v1h0.8c0.4,0,0.6-0.2,0.6-0.5C189.2,25.6,189,25.4,188.6,25.4z"/>
</svg>
