<?xml version="1.0" encoding="utf-8"?>
<!-- Generator: Adobe Illustrator 25.1.0, SVG Export Plug-In . SVG Version: 6.00 Build 0)  -->
<svg version="1.1" id="Layer_1" xmlns="http://www.w3.org/2000/svg" xmlns:xlink="http://www.w3.org/1999/xlink" x="0px" y="0px"
	 viewBox="0 0 230 60" style="enable-background:new 0 0 230 60;" xml:space="preserve">
<style type="text/css">
	.st0{fill-rule:evenodd;clip-rule:evenodd;fill:#4400FF;}
	.st1{fill-rule:evenodd;clip-rule:evenodd;fill:#40AB5D;}
	.st2{fill-rule:evenodd;clip-rule:evenodd;fill:url(#rect8192_2_);}
	.st3{fill-rule:evenodd;clip-rule:evenodd;fill:url(#rect8199_2_);}
	.st4{fill-rule:evenodd;clip-rule:evenodd;fill:url(#rect8206_2_);}
	.st5{fill-rule:evenodd;clip-rule:evenodd;fill:url(#rect8213_2_);}
	.st6{fill-rule:evenodd;clip-rule:evenodd;fill:url(#rect8220_2_);}
	.st7{fill-rule:evenodd;clip-rule:evenodd;fill:url(#rect8227_2_);}
	.st8{fill-rule:evenodd;clip-rule:evenodd;fill:url(#rect8234_2_);}
	.st9{fill-rule:evenodd;clip-rule:evenodd;fill:url(#rect8241_2_);}
	.st10{fill-rule:evenodd;clip-rule:evenodd;fill:url(#rect8248_2_);}
	.st11{fill:#1ED760;}
	.st12{fill:#100F0D;}
	.st13{fill:#FF0000;}
	.st14{fill:#FFFFFF;}
</style>
<g>
	<path class="st13" d="M60.4,30c0,13.8-11.4,25-25.4,25c-14,0-25.4-11.2-25.4-25c0-13.8,11.4-25,25.4-25C49,5,60.4,16.2,60.4,30z"/>
	<path class="st13" d="M50.1,30c0,8.3-6.8,15-15.2,15c-8.4,0-15.2-6.7-15.2-15c0-8.3,6.8-15,15.2-15C43.3,15,50.1,21.7,50.1,30z"/>
	<path class="st14" d="M34.9,46.2c-9.1,0-16.5-7.3-16.5-16.2c0-9,7.4-16.2,16.5-16.2C44,13.8,51.4,21,51.4,30
		C51.4,39,44,46.2,34.9,46.2z M34.9,16.3C27.2,16.3,21,22.4,21,30s6.3,13.7,13.9,13.7c7.7,0,14-6.2,14-13.7S42.6,16.3,34.9,16.3z"/>
	<polygon class="st14" points="29.7,37.3 43.1,30 29.7,22.7 	"/>
	<g>
		<path d="M167.5,27.4c-0.7,3.7-1.3,8.3-1.6,10.2h-0.2c-0.2-1.9-0.8-6.5-1.6-10.1l-1.9-9.1h-5.7V43h3.6V22.6l0.4,1.9l3.6,18.4h3.6
			l3.6-18.4l0.4-1.9v12.2V43h3.6V18.3h-5.8L167.5,27.4z"/>
		<path d="M184.7,39.3c-0.3,0.7-1,1.1-1.7,1.1c-0.8,0-1.1-0.6-1.1-2.2V24.9h-4.1v13.5c0,3.3,1.1,4.9,3.5,4.9c1.6,0,3-0.7,3.9-2.5
			h0.1l0.4,2.2h3.2v-18h-4.1V39.3z"/>
		<path d="M196.6,32.1c-1.3-1-2.1-1.6-2.1-3c0-1,0.5-1.6,1.6-1.6c1.1,0,1.5,0.8,1.6,3.5l3.4-0.1c0.3-4.4-1.2-6.2-4.9-6.2
			c-3.5,0-5.2,1.6-5.2,4.8c0,2.9,1.4,4.2,3.7,6c2,1.5,3.1,2.4,3.1,3.6c0,0.9-0.6,1.6-1.6,1.6c-1.2,0-1.9-1.1-1.7-3.1l-3.4,0.1
			c-0.5,3.7,1,5.9,5,5.9c3.5,0,5.3-1.6,5.3-4.9C201.3,35.6,199.8,34.4,196.6,32.1z"/>
		<rect x="203.5" y="24.9" width="3.9" height="18"/>
		<path d="M205.5,17.8c-1.5,0-2.2,0.6-2.2,2.5c0,2,0.7,2.5,2.2,2.5c1.5,0,2.2-0.5,2.2-2.5C207.7,18.5,207,17.8,205.5,17.8z"/>
		<path d="M220.5,36.5l-3.6-0.2c0,3.2-0.4,4.2-1.6,4.2c-1.2,0-1.4-1.1-1.4-4.9v-3.5c0-3.6,0.2-4.8,1.4-4.8c1.1,0,1.4,1.1,1.4,4.4
			l3.5-0.2c0.2-2.8-0.1-4.7-1.2-5.8c-0.8-0.8-2-1.2-3.7-1.2c-3.9,0-5.6,2.1-5.6,8.1v2.5c0,6.1,1.4,8.1,5.4,8.1
			c1.7,0,2.9-0.4,3.7-1.1C220.1,41.1,220.6,39.3,220.5,36.5z"/>
	</g>
	<g>
		<path d="M81.9,42.4c-0.8-0.5-1.4-1.4-1.7-2.6c-0.3-1.2-0.5-2.7-0.5-4.6v-2.6c0-1.9,0.2-3.5,0.6-4.7c0.4-1.2,1-2,1.8-2.6
			c0.8-0.5,1.9-0.8,3.3-0.8c1.3,0,2.4,0.3,3.2,0.8c0.8,0.5,1.4,1.4,1.8,2.6c0.4,1.2,0.6,2.7,0.6,4.7v2.6c0,1.9-0.2,3.5-0.5,4.6
			s-1,2-1.8,2.6c-0.8,0.5-1.9,0.8-3.3,0.8C83.9,43.3,82.7,43,81.9,42.4z M86.5,39.6c0.2-0.6,0.3-1.5,0.3-2.9v-5.6
			c0-1.3-0.1-2.2-0.3-2.8s-0.6-0.9-1.2-0.9c-0.5,0-0.9,0.3-1.2,0.9c-0.2,0.6-0.3,1.5-0.3,2.8v5.6c0,1.3,0.1,2.3,0.3,2.9
			c0.2,0.6,0.6,0.9,1.2,0.9C85.9,40.5,86.2,40.2,86.5,39.6z"/>
		<path d="M144.4,35.3v0.9c0,1.2,0,2,0.1,2.6c0.1,0.6,0.2,1,0.4,1.3c0.2,0.3,0.5,0.4,1,0.4c0.6,0,1-0.2,1.2-0.7
			c0.2-0.5,0.3-1.3,0.4-2.4l3.5,0.2c0,0.2,0,0.4,0,0.6c0,1.7-0.5,2.9-1.4,3.7c-0.9,0.8-2.2,1.2-3.9,1.2c-2,0-3.4-0.6-4.2-1.9
			c-0.8-1.3-1.2-3.2-1.2-5.8v-3.1c0-2.7,0.4-4.7,1.2-5.9c0.8-1.2,2.3-1.9,4.3-1.9c1.4,0,2.5,0.3,3.2,0.8c0.7,0.5,1.3,1.3,1.6,2.4
			c0.3,1.1,0.5,2.6,0.5,4.5v3.1H144.4z M144.9,27.7c-0.2,0.3-0.3,0.7-0.4,1.2c-0.1,0.6-0.1,1.5-0.1,2.6v1.3h3v-1.3
			c0-1.2,0-2-0.1-2.6c-0.1-0.6-0.2-1-0.4-1.3s-0.5-0.4-1-0.4C145.4,27.3,145.1,27.5,144.9,27.7z"/>
		<path d="M72,35l-4.6-16.7h4l1.6,7.6c0.4,1.9,0.7,3.4,0.9,4.8h0.1c0.1-0.9,0.4-2.5,0.9-4.7l1.7-7.6h4L76,35v8h-4L72,35L72,35z"/>
		<path d="M104,24.9v18h-3.2l-0.4-2.2h-0.1c-0.9,1.7-2.2,2.5-3.9,2.5c-1.2,0-2.1-0.4-2.6-1.2s-0.9-2-0.9-3.7V24.9h4.1v13.2
			c0,0.8,0.1,1.4,0.3,1.7s0.5,0.5,0.9,0.5c0.4,0,0.7-0.1,1-0.3c0.3-0.2,0.6-0.5,0.7-0.8V24.9H104z"/>
		<path d="M124.8,24.9v18h-3.2l-0.4-2.2h-0.1c-0.9,1.7-2.2,2.5-3.9,2.5c-1.2,0-2.1-0.4-2.6-1.2c-0.6-0.8-0.9-2-0.9-3.7V24.9h4.1
			v13.2c0,0.8,0.1,1.4,0.3,1.7s0.5,0.5,0.9,0.5c0.4,0,0.7-0.1,1-0.3c0.3-0.2,0.6-0.5,0.7-0.8V24.9H124.8z"/>
		<path d="M115,21.6h-4V43h-4V21.6h-4v-3.3h12V21.6z"/>
		<path d="M138.3,27.8c-0.2-1.1-0.6-2-1.2-2.5c-0.5-0.5-1.3-0.8-2.3-0.8c-0.7,0-1.4,0.2-2.1,0.6c-0.6,0.4-1.1,1-1.5,1.7h0v-9.5h-3.9
			V43h3.4l0.4-1.7h0.1c0.3,0.6,0.8,1.1,1.4,1.4c0.6,0.4,1.3,0.5,2.1,0.5c1.4,0,2.4-0.6,3-1.9c0.6-1.3,1-3.2,1-5.9v-2.9
			C138.6,30.5,138.5,29,138.3,27.8z M134.5,35.2c0,1.3-0.1,2.3-0.2,3.1c-0.1,0.7-0.3,1.3-0.5,1.6c-0.3,0.3-0.6,0.5-1,0.5
			c-0.3,0-0.6-0.1-0.9-0.2c-0.3-0.2-0.5-0.4-0.7-0.7V29.1c0.1-0.5,0.4-0.9,0.7-1.2c0.3-0.3,0.7-0.5,1.1-0.5c0.4,0,0.7,0.2,1,0.5
			c0.2,0.3,0.4,0.9,0.5,1.6c0.1,0.8,0.1,1.9,0.1,3.3V35.2z"/>
	</g>
</g>
</svg>
